<?xml version="1.0" encoding="UTF-8" standalone="no"?>
<!DOCTYPE svg PUBLIC "-//W3C//DTD SVG 1.1//EN" "http://www.w3.org/Graphics/SVG/1.1/DTD/svg11.dtd">
<svg version="1.1" xmlns="http://www.w3.org/2000/svg" xmlns:xlink="http://www.w3.org/1999/xlink" preserveAspectRatio="xMidYMid meet" viewBox="0 0 37 37" width="37" height="37"><defs><path d="M21.26 1.16L21.3 1.16L21.33 1.17L21.36 1.18L21.39 1.19L21.42 1.2L21.45 1.21L21.48 1.23L21.5 1.24L21.53 1.26L21.56 1.28L21.58 1.3L21.61 1.32L21.63 1.34L21.65 1.37L21.67 1.39L21.69 1.42L21.72 1.45L21.74 1.48L21.76 1.51L21.77 1.54L21.79 1.57L21.81 1.6L21.83 1.64L21.85 1.67L21.86 1.71L21.88 1.74L21.9 1.78L21.91 1.82L21.93 1.86L21.94 1.9L21.96 1.94L21.98 1.98L21.99 2.03L22.01 2.07L22.02 2.11L22.04 2.16L22.05 2.2L22.06 2.25L22.82 5.07L23.05 5.14L23.58 5.33L24.09 5.54L24.59 5.76L25.09 6L25.13 6.03L27.67 4.56L27.71 4.53L27.75 4.51L27.79 4.49L27.83 4.47L27.87 4.45L27.91 4.43L27.95 4.41L27.99 4.4L28.03 4.38L28.07 4.36L28.11 4.35L28.15 4.33L28.19 4.32L28.22 4.3L28.26 4.29L28.3 4.28L28.34 4.27L28.37 4.26L28.41 4.25L28.44 4.24L28.48 4.24L28.51 4.23L28.55 4.23L28.58 4.23L28.61 4.22L28.64 4.23L28.68 4.23L28.71 4.23L28.74 4.23L28.77 4.24L28.8 4.25L28.83 4.26L28.86 4.27L28.89 4.28L28.92 4.3L28.95 4.31L28.97 4.33L29 4.35L29.03 4.38L29.05 4.4L32.75 8.1L32.77 8.12L32.8 8.15L32.82 8.18L32.83 8.2L32.85 8.23L32.87 8.26L32.88 8.29L32.89 8.32L32.9 8.35L32.91 8.38L32.92 8.42L32.93 8.45L32.93 8.48L32.93 8.51L32.93 8.55L32.93 8.58L32.93 8.62L32.93 8.65L32.93 8.69L32.92 8.72L32.91 8.76L32.91 8.79L32.9 8.83L32.89 8.87L32.88 8.9L32.86 8.94L32.85 8.98L32.84 9.02L32.82 9.06L32.8 9.09L32.79 9.13L32.77 9.17L32.75 9.21L32.73 9.25L32.71 9.29L32.69 9.33L32.66 9.37L32.64 9.4L32.62 9.44L32.59 9.48L31.13 12.02L31.16 12.07L31.4 12.57L31.62 13.07L31.83 13.58L32.01 14.11L32.09 14.34L34.91 15.09L34.96 15.11L35 15.12L35.05 15.13L35.09 15.14L35.13 15.15L35.18 15.17L35.22 15.18L35.26 15.19L35.3 15.21L35.34 15.22L35.38 15.24L35.41 15.25L35.45 15.27L35.49 15.29L35.52 15.31L35.56 15.32L35.59 15.34L35.62 15.36L35.65 15.38L35.68 15.4L35.71 15.42L35.74 15.45L35.77 15.47L35.79 15.49L35.82 15.52L35.84 15.54L35.86 15.57L35.88 15.59L35.9 15.62L35.92 15.65L35.93 15.68L35.95 15.7L35.96 15.73L35.97 15.76L35.98 15.8L35.99 15.83L35.99 15.86L36 15.9L36 15.93L36 15.97L36 21.19L36 21.23L36 21.26L35.99 21.3L35.99 21.33L35.98 21.36L35.97 21.39L35.96 21.42L35.95 21.45L35.93 21.48L35.92 21.5L35.9 21.53L35.88 21.56L35.86 21.58L35.84 21.61L35.82 21.63L35.79 21.65L35.77 21.67L35.74 21.69L35.71 21.72L35.68 21.74L35.65 21.76L35.62 21.77L35.59 21.79L35.56 21.81L35.52 21.83L35.49 21.85L35.45 21.86L35.41 21.88L35.38 21.9L35.34 21.91L35.3 21.93L35.26 21.94L35.22 21.96L35.18 21.98L35.13 21.99L35.09 22.01L35.05 22.02L35 22.04L34.96 22.05L34.91 22.06L32.09 22.82L32.01 23.05L31.83 23.58L31.62 24.09L31.4 24.59L31.16 25.09L31.13 25.14L32.59 27.67L32.62 27.71L32.64 27.74L32.66 27.78L32.69 27.82L32.71 27.86L32.73 27.9L32.75 27.94L32.77 27.98L32.79 28.02L32.8 28.06L32.82 28.09L32.84 28.13L32.85 28.17L32.86 28.21L32.88 28.24L32.89 28.28L32.9 28.32L32.91 28.36L32.91 28.39L32.92 28.43L32.93 28.46L32.93 28.5L32.93 28.53L32.93 28.57L32.93 28.6L32.93 28.64L32.93 28.67L32.93 28.7L32.92 28.73L32.91 28.77L32.9 28.8L32.89 28.83L32.88 28.86L32.87 28.89L32.85 28.92L32.83 28.94L32.82 28.97L32.8 29L32.77 29.03L32.75 29.05L29.05 32.75L29.03 32.77L29 32.79L28.97 32.82L28.95 32.83L28.92 32.85L28.89 32.87L28.86 32.88L28.83 32.89L28.8 32.9L28.77 32.91L28.74 32.91L28.71 32.92L28.68 32.92L28.64 32.92L28.61 32.92L28.58 32.92L28.55 32.92L28.51 32.92L28.48 32.91L28.44 32.91L28.41 32.9L28.37 32.89L28.34 32.88L28.3 32.87L28.26 32.86L28.22 32.85L28.19 32.83L28.15 32.82L28.11 32.8L28.07 32.79L28.03 32.77L27.99 32.75L27.95 32.73L27.91 32.72L27.87 32.7L27.83 32.68L27.79 32.66L27.75 32.64L27.71 32.62L27.67 32.59L25.14 31.13L25.09 31.16L24.59 31.4L24.09 31.62L23.58 31.83L23.05 32.01L22.82 32.09L22.06 34.91L22.05 34.96L22.04 35L22.02 35.05L22.01 35.09L21.99 35.13L21.98 35.18L21.96 35.22L21.94 35.26L21.93 35.3L21.91 35.34L21.9 35.38L21.88 35.41L21.86 35.45L21.85 35.49L21.83 35.52L21.81 35.56L21.79 35.59L21.77 35.62L21.76 35.65L21.74 35.68L21.72 35.71L21.69 35.74L21.67 35.77L21.65 35.79L21.63 35.82L21.61 35.84L21.58 35.86L21.56 35.88L21.53 35.9L21.5 35.92L21.48 35.93L21.45 35.95L21.42 35.96L21.39 35.97L21.36 35.98L21.33 35.99L21.3 35.99L21.26 36L21.23 36L21.19 36L15.97 36L15.93 36L15.9 36L15.86 35.99L15.83 35.99L15.8 35.98L15.76 35.97L15.73 35.96L15.7 35.95L15.68 35.93L15.65 35.92L15.62 35.9L15.59 35.88L15.57 35.86L15.54 35.84L15.52 35.82L15.49 35.79L15.47 35.77L15.45 35.74L15.42 35.71L15.4 35.68L15.38 35.65L15.36 35.62L15.34 35.59L15.32 35.56L15.31 35.52L15.29 35.49L15.27 35.45L15.25 35.41L15.24 35.38L15.22 35.34L15.21 35.3L15.19 35.26L15.18 35.22L15.17 35.18L15.15 35.13L15.14 35.09L15.13 35.05L15.12 35L15.11 34.96L15.09 34.91L14.34 32.09L14.11 32.01L13.58 31.83L13.07 31.62L12.57 31.4L12.07 31.16L12.01 31.12L9.49 32.58L9.45 32.61L9.41 32.63L9.38 32.65L9.34 32.68L9.3 32.7L9.26 32.72L9.22 32.74L9.18 32.76L9.14 32.78L9.1 32.79L9.07 32.81L9.03 32.82L8.99 32.84L8.95 32.85L8.91 32.87L8.88 32.88L8.84 32.89L8.8 32.9L8.77 32.9L8.73 32.91L8.7 32.92L8.66 32.92L8.63 32.92L8.59 32.92L8.56 32.92L8.52 32.92L8.49 32.92L8.46 32.92L8.43 32.91L8.39 32.9L8.36 32.89L8.33 32.88L8.3 32.87L8.27 32.86L8.24 32.84L8.21 32.82L8.19 32.81L8.16 32.78L8.13 32.76L8.11 32.74L4.41 29.04L4.39 29.02L4.36 28.99L4.34 28.96L4.33 28.94L4.31 28.91L4.29 28.88L4.28 28.85L4.27 28.82L4.26 28.79L4.25 28.76L4.25 28.73L4.24 28.7L4.24 28.67L4.24 28.63L4.24 28.6L4.24 28.57L4.24 28.54L4.24 28.5L4.25 28.47L4.25 28.43L4.26 28.4L4.27 28.36L4.28 28.33L4.29 28.29L4.3 28.25L4.31 28.21L4.33 28.18L4.34 28.14L4.36 28.1L4.37 28.06L4.39 28.02L4.41 27.98L4.42 27.94L4.44 27.9L4.46 27.86L4.48 27.82L4.5 27.78L4.52 27.74L4.54 27.7L4.57 27.66L6.03 25.13L6 25.09L5.76 24.59L5.54 24.09L5.33 23.58L5.14 23.05L5.07 22.82L2.25 22.06L2.2 22.05L2.16 22.04L2.11 22.02L2.07 22.01L2.03 21.99L1.98 21.98L1.94 21.96L1.9 21.94L1.86 21.93L1.82 21.91L1.78 21.9L1.74 21.88L1.71 21.86L1.67 21.85L1.64 21.83L1.6 21.81L1.57 21.79L1.54 21.77L1.51 21.76L1.48 21.74L1.45 21.72L1.42 21.69L1.39 21.67L1.37 21.65L1.34 21.63L1.32 21.61L1.3 21.58L1.28 21.56L1.26 21.53L1.24 21.5L1.23 21.48L1.21 21.45L1.2 21.42L1.19 21.39L1.18 21.36L1.17 21.33L1.16 21.3L1.16 21.26L1.16 21.23L1.16 21.19L1.16 15.97L1.16 15.93L1.16 15.9L1.16 15.86L1.17 15.83L1.18 15.8L1.19 15.76L1.2 15.73L1.21 15.7L1.23 15.68L1.24 15.65L1.26 15.62L1.28 15.59L1.3 15.57L1.32 15.54L1.34 15.52L1.37 15.49L1.39 15.47L1.42 15.45L1.45 15.42L1.48 15.4L1.51 15.38L1.54 15.36L1.57 15.34L1.6 15.32L1.64 15.31L1.67 15.29L1.71 15.27L1.74 15.25L1.78 15.24L1.82 15.22L1.86 15.21L1.9 15.19L1.94 15.18L1.98 15.17L2.03 15.15L2.07 15.14L2.11 15.13L2.16 15.12L2.2 15.11L2.25 15.09L5.07 14.34L5.14 14.11L5.33 13.58L5.54 13.07L5.76 12.57L6 12.07L6.03 12.02L4.57 9.49L4.54 9.45L4.52 9.41L4.5 9.37L4.48 9.33L4.46 9.29L4.44 9.25L4.42 9.21L4.41 9.17L4.39 9.13L4.37 9.09L4.36 9.05L4.34 9.01L4.33 8.97L4.31 8.93L4.3 8.9L4.29 8.86L4.28 8.82L4.27 8.79L4.26 8.75L4.25 8.72L4.25 8.68L4.24 8.65L4.24 8.61L4.24 8.58L4.24 8.55L4.24 8.51L4.24 8.48L4.24 8.45L4.25 8.42L4.25 8.39L4.26 8.36L4.27 8.33L4.28 8.3L4.29 8.27L4.31 8.24L4.33 8.21L4.34 8.19L4.36 8.16L4.39 8.13L4.41 8.11L8.11 4.41L8.13 4.39L8.16 4.36L8.19 4.34L8.21 4.32L8.24 4.31L8.27 4.29L8.3 4.28L8.33 4.27L8.36 4.26L8.39 4.25L8.43 4.24L8.46 4.23L8.49 4.23L8.52 4.23L8.56 4.22L8.59 4.22L8.63 4.23L8.66 4.23L8.7 4.23L8.73 4.24L8.77 4.25L8.8 4.25L8.84 4.26L8.88 4.27L8.91 4.28L8.95 4.3L8.99 4.31L9.03 4.32L9.07 4.34L9.1 4.36L9.14 4.37L9.18 4.39L9.22 4.41L9.26 4.43L9.3 4.45L9.34 4.47L9.38 4.49L9.41 4.52L9.45 4.54L9.49 4.57L12.02 6.03L12.07 6L12.57 5.76L13.07 5.54L13.58 5.33L14.11 5.14L14.34 5.07L15.09 2.25L15.11 2.2L15.12 2.16L15.13 2.11L15.14 2.07L15.15 2.03L15.17 1.98L15.18 1.94L15.19 1.9L15.21 1.86L15.22 1.82L15.24 1.78L15.25 1.74L15.27 1.71L15.29 1.67L15.31 1.64L15.32 1.6L15.34 1.57L15.36 1.54L15.38 1.51L15.4 1.48L15.42 1.45L15.45 1.42L15.47 1.39L15.49 1.37L15.52 1.34L15.54 1.32L15.57 1.3L15.59 1.28L15.62 1.26L15.65 1.24L15.68 1.23L15.7 1.21L15.73 1.2L15.76 1.19L15.8 1.18L15.83 1.17L15.86 1.16L15.9 1.16L15.93 1.16L15.97 1.16L21.19 1.16L21.23 1.16L21.26 1.16ZM17.95 10.98L17.65 11.01L17.34 11.06L17.04 11.11L16.75 11.18L16.46 11.26L16.17 11.35L15.89 11.45L15.61 11.56L15.34 11.68L15.08 11.81L14.82 11.95L14.56 12.1L14.32 12.26L14.08 12.43L13.84 12.61L13.62 12.79L13.4 12.99L13.19 13.19L12.99 13.4L12.79 13.62L12.61 13.84L12.43 14.08L12.26 14.32L12.1 14.56L11.95 14.82L11.81 15.08L11.68 15.34L11.56 15.61L11.45 15.89L11.35 16.17L11.26 16.46L11.18 16.75L11.11 17.04L11.06 17.34L11.01 17.65L10.98 17.95L10.96 18.27L10.96 18.58L10.96 18.89L10.98 19.2L11.01 19.51L11.06 19.82L11.11 20.12L11.18 20.41L11.26 20.7L11.35 20.99L11.45 21.27L11.56 21.55L11.68 21.82L11.81 22.08L11.95 22.34L12.1 22.59L12.26 22.84L12.43 23.08L12.61 23.31L12.79 23.54L12.99 23.76L13.19 23.97L13.4 24.17L13.62 24.37L13.84 24.55L14.08 24.73L14.32 24.9L14.56 25.06L14.82 25.21L15.08 25.35L15.34 25.48L15.61 25.6L15.89 25.71L16.17 25.81L16.46 25.9L16.75 25.98L17.04 26.05L17.34 26.1L17.65 26.15L17.95 26.18L18.27 26.2L18.58 26.2L18.89 26.2L19.2 26.18L19.51 26.15L19.82 26.1L20.12 26.05L20.41 25.98L20.7 25.9L20.99 25.81L21.27 25.71L21.55 25.6L21.82 25.48L22.08 25.35L22.34 25.21L22.59 25.06L22.84 24.9L23.08 24.73L23.31 24.55L23.54 24.37L23.76 24.17L23.97 23.97L24.17 23.76L24.37 23.54L24.55 23.31L24.73 23.08L24.9 22.84L25.06 22.59L25.21 22.34L25.35 22.08L25.48 21.82L25.6 21.55L25.71 21.27L25.81 20.99L25.9 20.7L25.98 20.41L26.05 20.12L26.1 19.82L26.15 19.51L26.18 19.2L26.2 18.89L26.2 18.58L26.2 18.27L26.18 17.95L26.15 17.65L26.1 17.34L26.05 17.04L25.98 16.75L25.9 16.46L25.81 16.17L25.71 15.89L25.6 15.61L25.48 15.34L25.35 15.08L25.21 14.82L25.06 14.56L24.9 14.32L24.73 14.08L24.55 13.84L24.37 13.62L24.17 13.4L23.97 13.19L23.76 12.99L23.54 12.79L23.31 12.61L23.08 12.43L22.84 12.26L22.59 12.1L22.34 11.95L22.08 11.81L21.82 11.68L21.55 11.56L21.27 11.45L20.99 11.35L20.7 11.26L20.41 11.18L20.12 11.11L19.82 11.06L19.51 11.01L19.2 10.98L18.89 10.96L18.58 10.96L18.27 10.96L17.95 10.98Z" id="b6ueodhMy"></path></defs><g><g><g><use xlink:href="#b6ueodhMy" opacity="1" fill="#000000" fill-opacity="1"></use><g><use xlink:href="#b6ueodhMy" opacity="1" fill-opacity="0" stroke="#000000" stroke-width="1" stroke-opacity="1"></use></g></g></g></g></svg>